<?xml version="1.0" encoding="UTF-8"?>
<svg version="1.1" xmlns="http://www.w3.org/2000/svg" width="427" height="340">
<path d="M0 0 C140.91 0 281.82 0 427 0 C427 112.2 427 224.4 427 340 C286.09 340 145.18 340 0 340 C0 227.8 0 115.6 0 0 Z " fill="#FDFDFD" transform="translate(0,0)"/>
<path d="M0 0 C0.11902069 12.04753921 -0.13826069 23.98181423 -1 36 C0.07636719 35.66226563 1.15273437 35.32453125 2.26171875 34.9765625 C26.94723763 27.37293414 49.93505712 27.24467041 74 37 C76.95550801 38.59115047 79.81428311 40.23664718 82.6328125 42.05859375 C84.99765263 43.27420914 84.99765263 43.27420914 87.53515625 42.3046875 C88.34855469 41.87414062 89.16195312 41.44359375 90 41 C90.69738281 40.63261719 91.39476562 40.26523438 92.11328125 39.88671875 C92.83902344 39.49097656 93.56476563 39.09523437 94.3125 38.6875 C98.82050122 36.40642431 103.38017315 34.75808302 108.1875 33.25 C108.85241455 33.03947998 109.5173291 32.82895996 110.20239258 32.61206055 C118.89892229 29.97318064 127.23797253 29.81742461 136.25 29.8125 C137.41402344 29.80025391 138.57804688 29.78800781 139.77734375 29.77539062 C149.68944055 29.75874097 158.76539327 31.08561073 168.1875 34.125 C169.29480469 34.47820312 170.40210938 34.83140625 171.54296875 35.1953125 C172.35378906 35.46085937 173.16460937 35.72640625 174 36 C173.93941406 35.30028076 173.87882813 34.60056152 173.81640625 33.87963867 C173.5394683 30.64931727 173.26970003 27.41843344 173 24.1875 C172.85691406 22.53717773 172.85691406 22.53717773 172.7109375 20.85351562 C172.13519608 13.88293198 171.87343416 6.99364163 172 0 C189.73914367 -1.5133234 206.24971072 -2.80175717 220.71875 9.3046875 C228.38059554 16.92261593 233.13045007 27.67127716 236 38 C236 39.32 236 40.64 236 42 C235.17798096 42.32274902 234.35596191 42.64549805 233.5090332 42.97802734 C230.44322843 44.18183999 227.37747947 45.38579458 224.31176758 46.58984375 C222.98789652 47.10975697 221.66400359 47.62961451 220.34008789 48.14941406 C218.431094 48.89894006 216.52218026 49.64866989 214.61328125 50.3984375 C212.89298706 51.07398682 212.89298706 51.07398682 211.13793945 51.76318359 C208.42184306 52.83373089 205.70941796 53.91268239 203 55 C204.2065625 56.36125 204.2065625 56.36125 205.4375 57.75 C224.78039032 80.55185423 233.8434465 105.15665712 231.85205078 135.23461914 C230.0826707 154.41678079 220.84091983 172.84686938 208 187 C207.19046875 187.90234375 206.3809375 188.8046875 205.546875 189.734375 C198.74876943 196.9300306 191.52892096 202.06982058 183 207 C182.04609375 207.56589844 181.0921875 208.13179687 180.109375 208.71484375 C159.18539585 220.19965354 132.15791021 221.89117631 109.38623047 215.35766602 C103.34123475 213.39055714 97.64603034 210.61548714 92.15869141 207.41601562 C88.50034691 205.32203543 88.50034691 205.32203543 84.42578125 205.59765625 C83.62527344 206.06042969 82.82476562 206.52320313 82 207 C81.06285156 207.45117188 80.12570313 207.90234375 79.16015625 208.3671875 C78.13792969 208.86476563 77.11570313 209.36234375 76.0625 209.875 C55.16159415 219.57814471 28.08206705 222.25109982 6.05078125 214.62109375 C-0.91109204 211.9364498 -7.50330643 208.6571275 -14 205 C-14.83789062 204.52949219 -15.67578125 204.05898438 -16.5390625 203.57421875 C-35.60645685 191.82177023 -51.44666393 170.35955232 -56.8515625 148.56640625 C-62.4099854 121.17923287 -58.95480958 94.37534421 -43.49780273 70.84667969 C-39.80001568 65.46319488 -35.55441515 60.67285147 -31 56 C-33.61403012 53.38596988 -36.5836297 52.46093449 -39.9765625 51.1796875 C-40.66181 50.91616486 -41.3470575 50.65264221 -42.05307007 50.38113403 C-44.2418274 49.54073378 -46.43333839 48.70779301 -48.625 47.875 C-50.10956237 47.30647862 -51.5939398 46.73747406 -53.078125 46.16796875 C-56.71662784 44.77303034 -60.35761769 43.38477523 -64 42 C-63.02248657 36.24704029 -60.68669513 31.29601484 -58.3125 26 C-57.67924805 24.52273437 -57.67924805 24.52273437 -57.03320312 23.015625 C-54.4100867 17.16010115 -52.26008087 13.67402595 -47 10 C-45.99791749 9.11187721 -44.99933093 8.21979743 -44.00390625 7.32421875 C-31.09140803 -3.02184395 -15.63406665 -0.95724786 0 0 Z " fill="#EB048C" transform="translate(124,112)"/>
<path d="M0 0 C1.28003906 1.03447266 1.28003906 1.03447266 2.5859375 2.08984375 C16.79578672 14.17914624 25.42546832 29.79738482 29 48 C29.18304688 48.72960937 29.36609375 49.45921875 29.5546875 50.2109375 C33.12689238 72.58422069 26.92447859 93.69769899 14 112 C-0.35453881 130.23844092 -19.47641993 140.72087021 -42.5 143.6484375 C-58.72749344 145.27843126 -74.40773026 142.29613487 -89 135 C-87.56293522 131.61954709 -85.80375202 129.78412926 -83.0625 127.375 C-66.316862 110.89945294 -58.16967893 86.16596456 -57.625 63.0625 C-58.10019803 41.05219119 -64.87133168 19.70970053 -79.43359375 2.953125 C-81 1 -81 1 -82 -2 C-83.46555316 -1.26420788 -84.92224487 -0.51074874 -86.375 0.25 C-87.18710938 0.66765625 -87.99921875 1.0853125 -88.8359375 1.515625 C-91.20801205 3.14267975 -91.97094804 4.35386639 -93 7 C-92.5875 7.42667969 -92.175 7.85335937 -91.75 8.29296875 C-78.0978859 23.07260121 -70.56607437 41.6153153 -70.6875 61.6875 C-70.69487183 63.13552002 -70.69487183 63.13552002 -70.70239258 64.61279297 C-71.074563 87.45833146 -80.81817715 107.16510751 -97 123 C-98.30847449 124.03231404 -99.63175936 125.04831974 -101 126 C-113.62632947 120.71936221 -121.8432699 105.38121489 -126.875 93.5625 C-134.99610227 73.14616247 -134.77551823 52.06320091 -127.1875 31.5 C-118.37958737 11.80168378 -102.36969465 -4.15052732 -82.48046875 -12.47265625 C-79.01238814 -13.7614446 -75.53907407 -14.92270754 -72 -16 C-71.19433594 -16.2475 -70.38867188 -16.495 -69.55859375 -16.75 C-45.78888878 -22.7027609 -18.57776308 -15.23825582 0 0 Z " fill="#FDFCFD" transform="translate(312,173)"/>
<path d="M0 0 C-0.845625 0.99 -1.69125 1.98 -2.5625 3 C-3.11164063 3.64453125 -3.66078125 4.2890625 -4.2265625 4.953125 C-5.36910858 6.27183457 -6.52947699 7.57541335 -7.7109375 8.859375 C-26.27615145 29.1887043 -31.83509939 53.51611627 -31.13183594 80.23144531 C-30.0638031 102.66013499 -18.74911049 124.74870213 -2.734375 140.18359375 C-1 142 -1 142 -1 144 C-19.38031957 153.87091236 -41.53058083 155.80660361 -61.546875 149.96484375 C-85.49750301 141.8331349 -102.7454251 126.0581533 -113.875 103.5 C-122.10190613 84.32279812 -121.79597411 62.64386933 -114.75 43.25 C-110.96643862 34.08082874 -105.89693386 24.25993038 -99 17 C-98.34 17 -97.68 17 -97 17 C-96.67 16.01 -96.34 15.02 -96 14 C-95.34 14 -94.68 14 -94 14 C-94 13.34 -94 12.68 -94 12 C-91.95195205 10.31551086 -89.91534609 8.77124547 -87.75 7.25 C-86.79480469 6.57783447 -86.79480469 6.57783447 -85.8203125 5.89208984 C-59.70191864 -12.12934177 -28.29319097 -13.53635019 0 0 Z " fill="#FDFDFD" transform="translate(198,164)"/>
<path d="M0 0 C0.11902069 12.04753921 -0.13826069 23.98181423 -1 36 C0.07636719 35.66226563 1.15273437 35.32453125 2.26171875 34.9765625 C27.74248169 27.12798324 53.03617302 26.73595538 77.3828125 38.65625 C79.95793581 40.05248054 82.49398292 41.48388572 85 43 C85 43.99 85 44.98 85 46 C83.1015625 47.5703125 83.1015625 47.5703125 80.625 49.125 C79.40683594 49.90230469 79.40683594 49.90230469 78.1640625 50.6953125 C76 52 76 52 74 53 C71.72569013 52.14449801 69.53295604 51.22874263 67.3125 50.25 C47.50510301 42.0036746 25.87103628 41.35683572 5.8125 49.25 C-2.86014198 53.13571814 -10.82648527 57.77036879 -18 64 C-18.66 64 -19.32 64 -20 64 C-20 64.66 -20 65.32 -20 66 C-21.375 67.625 -21.375 67.625 -23 69 C-23.66 69 -24.32 69 -25 69 C-25.24105469 69.5259375 -25.48210937 70.051875 -25.73046875 70.59375 C-27.04386068 73.08313286 -28.554788 75.38572099 -30.12280273 77.72070312 C-34.66558421 84.51483229 -38.23529995 91.27216373 -41 99 C-41.34933594 99.97582031 -41.69867188 100.95164062 -42.05859375 101.95703125 C-48.30749968 122.15577696 -44.6345142 143.41120137 -35.5078125 162.046875 C-31.12145055 170.14800281 -25.45984452 176.53049951 -19 183 C-18.41605469 183.59554687 -17.83210938 184.19109375 -17.23046875 184.8046875 C-2.87124617 198.25509852 18.40618557 204.63678203 37.703125 204.25390625 C60.766271 202.4777161 81.37613302 194.40705421 97 177 C104.754213 167.58277479 110.7913718 156.79170863 114 145 C114.20625 144.26265625 114.4125 143.5253125 114.625 142.765625 C119.85110334 119.97400766 114.54604207 98.60313064 102.8828125 78.88671875 C100.28446976 74.9029526 97.30241204 71.41282703 94 68 C95.34071432 64.87833681 96.65352418 63.1898025 99.4375 61.25 C100.03433594 60.82203125 100.63117188 60.3940625 101.24609375 59.953125 C103 59 103 59 106 59 C107.70798792 60.77273114 109.1539607 62.47990804 110.625 64.4375 C111.06086426 65.01371094 111.49672852 65.58992188 111.94580078 66.18359375 C126.96960829 86.6859057 133.50094508 110.62637694 130.53515625 135.97265625 C127.35463318 156.53834922 118.91333093 175.31493434 104 190 C102.86304688 191.13501953 102.86304688 191.13501953 101.703125 192.29296875 C80.66423745 212.26616101 55.54330744 218.68818802 27.12109375 218.3359375 C11.90863573 217.85058287 -0.89305511 212.37817909 -14 205 C-14.83789062 204.52949219 -15.67578125 204.05898438 -16.5390625 203.57421875 C-35.60645685 191.82177023 -51.44666393 170.35955232 -56.8515625 148.56640625 C-62.4099854 121.17923287 -58.95480958 94.37534421 -43.49780273 70.84667969 C-39.80001568 65.46319488 -35.55441515 60.67285147 -31 56 C-33.61403012 53.38596988 -36.5836297 52.46093449 -39.9765625 51.1796875 C-40.66181 50.91616486 -41.3470575 50.65264221 -42.05307007 50.38113403 C-44.2418274 49.54073378 -46.43333839 48.70779301 -48.625 47.875 C-50.10956237 47.30647862 -51.5939398 46.73747406 -53.078125 46.16796875 C-56.71662784 44.77303034 -60.35761769 43.38477523 -64 42 C-63.02248657 36.24704029 -60.68669513 31.29601484 -58.3125 26 C-57.67924805 24.52273437 -57.67924805 24.52273437 -57.03320312 23.015625 C-54.4100867 17.16010115 -52.26008087 13.67402595 -47 10 C-45.99791749 9.11187721 -44.99933093 8.21979743 -44.00390625 7.32421875 C-31.09140803 -3.02184395 -15.63406665 -0.95724786 0 0 Z " fill="#047FC5" transform="translate(124,112)"/>
<path d="M0 0 C3.95823723 1.56488449 6.32306727 3.92857496 8.265625 7.75 C11.79018247 18.54864417 7.43800815 29.74736856 4 40 C-8.1972161 40.72940163 -20.54668799 39.37907201 -30 31 C-32.81725233 26.7741215 -32.79958384 22.96375312 -32 18 C-29.80977082 15.17575712 -28.16982793 13.58491397 -25 12 C-21.32670036 11.86642547 -18.50147041 11.8328432 -15 13 C-14.938125 11.948125 -14.87625 10.89625 -14.8125 9.8125 C-13.85862552 5.33662744 -12.46953013 3.87717133 -9 1 C-5.93570224 -0.53214888 -3.3834358 -0.22938548 0 0 Z " fill="#057FC6" transform="translate(183,14)"/>
<path d="M0 0 C0.99 0 1.98 0 3 0 C3 0.66 3 1.32 3 2 C4.051875 1.4740625 4.051875 1.4740625 5.125 0.9375 C8.50268586 -0.1639193 10.58080593 0.20483859 14 1 C14 2.32 14 3.64 14 5 C13.17798096 5.32274902 12.35596191 5.64549805 11.5090332 5.97802734 C8.44322843 7.18183999 5.37747947 8.38579458 2.31176758 9.58984375 C0.98789652 10.10975697 -0.33599641 10.62961451 -1.65991211 11.14941406 C-3.568906 11.89894006 -5.47781974 12.64866989 -7.38671875 13.3984375 C-8.53358154 13.84880371 -9.68044434 14.29916992 -10.86206055 14.76318359 C-13.57815694 15.83373089 -16.29058204 16.91268239 -19 18 C-18.195625 18.9075 -17.39125 19.815 -16.5625 20.75 C-3.53710236 36.10464522 7.38369677 53.39213375 9 74 C6.36 74.33 3.72 74.66 1 75 C0.34 73.68 -0.32 72.36 -1 71 C-1.99 72.98 -2.98 74.96 -4 77 C-4.33 77 -4.66 77 -5 77 C-5.15855469 76.12859375 -5.31710937 75.2571875 -5.48046875 74.359375 C-9.54175599 53.62661581 -19.24115426 38.61125729 -34 24 C-33.01 23.34 -32.02 22.68 -31 22 C-30.95834635 20.33385392 -30.95834635 18.66614608 -31 17 C-29 15 -29 15 -26.4375 14.8125 C-24 15 -24 15 -23 16 C-22.4740625 14.7934375 -22.4740625 14.7934375 -21.9375 13.5625 C-20 11 -20 11 -16.4375 10.3125 C-14.7359375 10.1578125 -14.7359375 10.1578125 -13 10 C-12.34 9.34 -11.68 8.68 -11 8 C-8.4375 7.8125 -8.4375 7.8125 -6 8 C-5.67 8.33 -5.34 8.66 -5 9 C-4.67 7.68 -4.34 6.36 -4 5 C-2.68 4.67 -1.36 4.34 0 4 C0 2.68 0 1.36 0 0 Z " fill="#EB058D" transform="translate(346,149)"/>
<path d="M0 0 C4.00638894 2.35157612 5.64995627 4.58167506 7 9 C7.66386719 8.94199219 8.32773438 8.88398437 9.01171875 8.82421875 C13.61455199 8.58903749 16.19100229 8.46606151 20.125 11.0625 C22.47957169 14.75132897 22.61537417 16.69238083 22 21 C20.41635985 25.1570554 17.67064655 27.52719885 13.87109375 29.796875 C7.25976784 32.56733538 0.01402491 33.65864267 -7 35 C-11.67129483 25.82143841 -15.52227698 17.59046458 -14 7 C-11.24059451 0.38001781 -6.86096145 -0.9481559 0 0 Z " fill="#EB058D" transform="translate(227,56)"/>
<path d="M0 0 C-1.00417969 0.51046875 -2.00835937 1.0209375 -3.04296875 1.546875 C-25.63292093 13.39451896 -38.52364664 30.4136534 -46.13671875 54.61328125 C-47.52053431 60.41176169 -47.32887488 66.32229394 -47.3125 72.25 C-47.32861328 73.40113281 -47.34472656 74.55226563 -47.36132812 75.73828125 C-47.37285621 96.18910289 -38.91397897 114.24018644 -25 129 C-29.03031789 129 -29.78904915 127.67493878 -32.625 124.875 C-46.96919714 110.04917289 -54.67728325 91.40686116 -55.5 70.75 C-55.0469539 51.93873813 -47.51704612 33.92458544 -35 20 C-34.48179688 19.38898438 -33.96359375 18.77796875 -33.4296875 18.1484375 C-28.09729487 12.28012601 -8.10674202 -4.05337101 0 0 Z " fill="#E2E3E4" transform="translate(139,165)"/>
<path d="M0 0 C11.69726573 1.97050713 23.1834205 9.2736427 32 17 C32 17.66 32 18.32 32 19 C32.99 19.33 33.98 19.66 35 20 C49.77610356 36.35107584 56.04958483 55.72181947 55.37890625 77.4296875 C54.49532449 93.82165259 47.6179246 108.62092925 37 121 C36.54625 121.57363281 36.0925 122.14726562 35.625 122.73828125 C33.05610512 125.97348324 30.31307622 128.53885767 27 131 C26.34 130.67 25.68 130.34 25 130 C25.969375 129.154375 26.93875 128.30875 27.9375 127.4375 C35.74834803 119.62665197 41.73380794 108.4914048 45 98 C45.44472656 96.61554688 45.44472656 96.61554688 45.8984375 95.203125 C51.72444849 74.14396602 47.78897891 51.71005402 37.25390625 32.87890625 C27.90454349 17.93158824 15.6500478 8.68487422 0 1 C0 0.67 0 0.34 0 0 Z " fill="#E1E3E4" transform="translate(281,164)"/>
<path d="M0 0 C-0.48210937 1.15757812 -0.96421875 2.31515625 -1.4609375 3.5078125 C-2.09906673 5.04683006 -2.73708151 6.58589508 -3.375 8.125 C-3.69210938 8.88554687 -4.00921875 9.64609375 -4.3359375 10.4296875 C-7.41892228 17.88023406 -9.42039945 24.82988188 -10.5625 32.8125 C-10.81009415 34.52788304 -11.06120351 36.24276365 -11.31640625 37.95703125 C-11.42412354 38.70960205 -11.53184082 39.46217285 -11.64282227 40.23754883 C-12 42 -12 42 -13 43 C-14.66617115 43.04063832 -16.33388095 43.042721 -18 43 C-18 42.34 -18 41.68 -18 41 C-16.68 41 -15.36 41 -14 41 C-14 40.34 -14 39.68 -14 39 C-15.98 39 -17.96 39 -20 39 C-19.95875 39.78375 -19.9175 40.5675 -19.875 41.375 C-20 44 -20 44 -22 46 C-22.99 46 -23.98 46 -25 46 C-25.6124065 30.21352128 -23.29763052 16.53682301 -17 2 C-16.34 2.33 -15.68 2.66 -15 3 C-13.32345271 2.72057545 -11.65391846 2.39171753 -10 2 C-9.01 3.98 -8.02 5.96 -7 8 C-7.33 5.36 -7.66 2.72 -8 0 C-4.71023192 -1.09658936 -3.28696233 -0.79953138 0 0 Z " fill="#0780C6" transform="translate(90,194)"/>
<path d="M0 0 C2.91415084 2.82584324 5.62748352 5.71316234 8.25 8.8125 C15.47836745 17.08237416 23.35176147 22.77591145 33 28 C32.1953125 29.953125 32.1953125 29.953125 31 32 C27.875 32.75 27.875 32.75 25 33 C24.505 31.02 24.505 31.02 24 29 C23.34 29 22.68 29 22 29 C22 30.32 22 31.64 22 33 C20.68 33 19.36 33 18 33 C17.01 33.66 16.02 34.32 15 35 C-5.41521925 18.0542211 -5.41521925 18.0542211 -10 9 C-9.1875 5.6875 -9.1875 5.6875 -8 3 C-6.576875 3.0928125 -6.576875 3.0928125 -5.125 3.1875 C-3.578125 3.0946875 -3.578125 3.0946875 -2 3 C-1.34 2.01 -0.68 1.02 0 0 Z " fill="#0680C6" transform="translate(91,280)"/>
<path d="M0 0 C2.30275556 1.8670991 3.67823871 3.35647741 5 6 C5.52293617 13.05963823 3.89701532 19.22494528 2 26 C-5.96131823 25.57559149 -12.73846906 24.87653338 -19.5 20.3125 C-21.85588873 16.68050488 -21.54435323 14.28678166 -21 10 C-19.4375 7.9375 -19.4375 7.9375 -17 7 C-13.25 7.3125 -13.25 7.3125 -10 8 C-9.896875 7.236875 -9.79375 6.47375 -9.6875 5.6875 C-8.27377755 0.16113042 -5.52582287 -0.78940327 0 0 Z " fill="#0881C6" transform="translate(193,91)"/>
<path d="M0 0 C0.66 0 1.32 0 2 0 C2.33 0.99 2.66 1.98 3 3 C5.97065509 2.65772428 5.97065509 2.65772428 9 2 C9.33 1.34 9.66 0.68 10 0 C15.16345531 0.88573892 20.06326873 2.56070874 25.02929688 4.18359375 C29.00578079 5.45757627 32.84728189 6.42810768 37 7 C37 7.66 37 8.32 37 9 C35.35 9.33 33.7 9.66 32 10 C33.32 13.3 34.64 16.6 36 20 C35.01 20 34.02 20 33 20 C33 19.34 33 18.68 33 18 C31.35 18.33 29.7 18.66 28 19 C27.01 17.35 26.02 15.7 25 14 C23.02 14.33 21.04 14.66 19 15 C19 15.66 19 16.32 19 17 C13.46387166 16.0034969 8.71180489 14.06166639 3.6875 11.5625 C2.77170166 11.11185181 2.77170166 11.11185181 1.83740234 10.65209961 C-1.21207765 9.0986467 -3.77347351 7.62842658 -6 5 C-5.01 3.68 -4.02 2.36 -3 1 C-2.01 1.99 -1.02 2.98 0 4 C0 2.68 0 1.36 0 0 Z " fill="#037EC5" transform="translate(113,309)"/>
<path d="M0 0 C2.57429138 4.69429605 2.24176777 8.96115042 1 14 C-3.79566494 27.42786182 -3.79566494 27.42786182 -9 32 C-9.33 30.68 -9.66 29.36 -10 28 C-10.99 28 -11.98 28 -13 28 C-12.67 29.32 -12.34 30.64 -12 32 C-12.61875 32.268125 -13.2375 32.53625 -13.875 32.8125 C-16.2995233 33.95556848 -16.2995233 33.95556848 -18 37 C-18.33 36.67 -18.66 36.34 -19 36 C-20.66617115 35.95936168 -22.33388095 35.957279 -24 36 C-24.99 38.475 -24.99 38.475 -26 41 C-26.99 39.68 -27.98 38.36 -29 37 C-28.43152344 36.29617188 -27.86304688 35.59234375 -27.27734375 34.8671875 C-22.02585389 28.15159278 -18.11944914 21.65207303 -14.703125 13.8359375 C-12.73859156 10.56471897 -11.55175382 10.093752 -8 9 C-7.67 8.34 -7.34 7.68 -7 7 C-5.35 7 -3.7 7 -2 7 C-1.67 5.68 -1.34 4.36 -1 3 C-3.475 2.505 -3.475 2.505 -6 2 C-2.25 0 -2.25 0 0 0 Z " fill="#037EC5" transform="translate(249,253)"/>
<path d="M0 0 C1.40216625 4.61215692 0.46274736 7.77230402 -0.9375 12.3125 C-1.31777344 13.56675781 -1.69804687 14.82101563 -2.08984375 16.11328125 C-2.39019531 17.06589844 -2.69054687 18.01851562 -3 19 C-12.19105787 19.54963137 -24.50820674 19.73469419 -31.8984375 13.36328125 C-32.44371094 12.68845703 -32.44371094 12.68845703 -33 12 C-32.360625 11.690625 -31.72125 11.38125 -31.0625 11.0625 C-29.06389179 10.1654837 -29.06389179 10.1654837 -28 9 C-26.33382885 8.95936168 -24.66611905 8.957279 -23 9 C-23 7.35 -23 5.7 -23 4 C-22.01 4 -21.02 4 -20 4 C-19.34 5.65 -18.68 7.3 -18 9 C-17.67 8.01 -17.34 7.02 -17 6 C-16.34 6 -15.68 6 -15 6 C-15 7.32 -15 8.64 -15 10 C-13.68 10 -12.36 10 -11 10 C-11.7763932 6.9254644 -11.7763932 6.9254644 -14 5 C-10.25 3.875 -10.25 3.875 -8 5 C-8 3.68 -8 2.36 -8 1 C-4.93251126 -0.86240388 -3.40254489 -1.2151946 0 0 Z " fill="#0981C6" transform="translate(190,35)"/>
<path d="M0 0 C2.5625 0.9375 2.5625 0.9375 4.4375 2.9375 C7.30581245 5.63708819 9.72414118 5.57539068 13.5625 5.9375 C14.5625 6.9375 14.5625 6.9375 14.9375 9.6875 C14.5625 12.9375 14.5625 12.9375 12.6875 15.625 C8.58705225 18.65933133 4.47711973 19.76371703 -0.4375 20.9375 C-5.33777354 16.22518216 -5.67078215 11.82214206 -5.80078125 5.2421875 C-5.22290354 1.57608163 -3.75595809 -0.09630662 0 0 Z " fill="#EB078E" transform="translate(213.4375,123.0625)"/>
<path d="M0 0 C1.98 0 3.96 0 6 0 C6 0.66 6 1.32 6 2 C4.68 2 3.36 2 2 2 C2 2.66 2 3.32 2 4 C3.98 3.67 5.96 3.34 8 3 C9.42625566 10.41143564 10.30071865 17.44862068 10 25 C8.906875 24.9175 7.81375 24.835 6.6875 24.75 C2.96557142 24.58896039 2.96557142 24.58896039 1.0625 27 C0.711875 27.66 0.36125 28.32 0 29 C-0.33 27.35 -0.66 25.7 -1 24 C-1.66 24 -2.32 24 -3 24 C-4.2982126 18.23918159 -5.25706972 12.91260345 -5 7 C-4.0409375 6.6596875 -4.0409375 6.6596875 -3.0625 6.3125 C-0.72806339 5.14749104 -0.72806339 5.14749104 -0.25 2.375 C-0.1675 1.59125 -0.085 0.8075 0 0 Z " fill="#047FC5" transform="translate(70,233)"/>
<path d="M0 0 C0.99 0 1.98 0 3 0 C3.50615298 1.26839526 4.00469099 2.53983102 4.5 3.8125 C4.7784375 4.52019531 5.056875 5.22789062 5.34375 5.95703125 C6 8 6 8 6 11 C3.42786866 12.61949011 2.32330841 13.04408751 -0.75 12.625 C-1.86375 12.315625 -1.86375 12.315625 -3 12 C-3.99 13.65 -4.98 15.3 -6 17 C-7.98 16.67 -9.96 16.34 -12 16 C-11.773125 16.598125 -11.54625 17.19625 -11.3125 17.8125 C-11 20 -11 20 -12.125 21.75 C-14.53854651 23.35903101 -16.15673536 23.23053497 -19 23 C-22.07692308 17.70769231 -22.07692308 17.70769231 -21.6875 14.125 C-21.460625 13.42375 -21.23375 12.7225 -21 12 C-19.906875 11.71125 -18.81375 11.4225 -17.6875 11.125 C-13.95986155 10.18106796 -13.95986155 10.18106796 -11 8 C-7.3125 8.375 -7.3125 8.375 -4 9 C-3.896875 8.38125 -3.79375 7.7625 -3.6875 7.125 C-3 5 -3 5 0 3 C0 2.01 0 1.02 0 0 Z " fill="#E82F9C" transform="translate(336,123)"/>
<path d="M0 0 C0.99 0 1.98 0 3 0 C4.1796875 2.19921875 4.1796875 2.19921875 5 5 C3.8828125 7.45703125 3.8828125 7.45703125 2.125 9.8125 C1.55007812 10.60269531 0.97515625 11.39289063 0.3828125 12.20703125 C-0.07351562 12.79871094 -0.52984375 13.39039063 -1 14 C-1.66 13.34 -2.32 12.68 -3 12 C-3.556875 12.680625 -4.11375 13.36125 -4.6875 14.0625 C-5.450625 14.701875 -6.21375 15.34125 -7 16 C-9.75 15.75 -9.75 15.75 -12 15 C-11.95875 15.94875 -11.9175 16.8975 -11.875 17.875 C-12 21 -12 21 -14 23 C-16.625 23.125 -16.625 23.125 -19 23 C-19.66 21.68 -20.32 20.36 -21 19 C-21.5775 19.66 -22.155 20.32 -22.75 21 C-25 23 -25 23 -29 23 C-27.44997253 19.11602311 -24.99523379 16.97020381 -21.875 14.25 C-20.96492187 13.45078125 -20.05484375 12.6515625 -19.1171875 11.828125 C-18.41851562 11.22484375 -17.71984375 10.6215625 -17 10 C-16.01 10.33 -15.02 10.66 -14 11 C-13.608125 10.34 -13.21625 9.68 -12.8125 9 C-11 7 -11 7 -8.375 6.6875 C-6 7 -6 7 -5 8 C-2.43750025 5.68767578 -2.43750025 5.68767578 0 3 C0 2.01 0 1.02 0 0 Z " fill="#2A8FCA" transform="translate(236,281)"/>
<path d="M0 0 C0.99 0 1.98 0 3 0 C3.9375 2.4375 3.9375 2.4375 4 6 C1.50599084 10.09044909 -1.6199309 13.6199309 -5 17 C-5.33 16.67 -5.66 16.34 -6 16 C-7.66617115 15.95936168 -9.33388095 15.957279 -11 16 C-11.33 17.98 -11.66 19.96 -12 22 C-14.31 22.33 -16.62 22.66 -19 23 C-19 21.68 -19 20.36 -19 19 C-19.66 19 -20.32 19 -21 19 C-19.86059291 15.14354522 -18.82205934 11.93494171 -16 9 C-15.01 9 -14.02 9 -13 9 C-12.34 8.34 -11.68 7.68 -11 7 C-8.4375 6.8125 -8.4375 6.8125 -6 7 C-5.67 7.33 -5.34 7.66 -5 8 C-2.43750025 5.68767578 -2.43750025 5.68767578 0 3 C0 2.01 0 1.02 0 0 Z " fill="#E92B9B" transform="translate(196,177)"/>
<path d="M0 0 C0.99 0 1.98 0 3 0 C3 0.66 3 1.32 3 2 C3.70125 1.649375 4.4025 1.29875 5.125 0.9375 C8.50268586 -0.1639193 10.58080593 0.20483859 14 1 C14 2.32 14 3.64 14 5 C13.18845459 5.31751221 12.37690918 5.63502441 11.54077148 5.9621582 C8.50070661 7.15218288 5.46104072 8.34321598 2.42163086 9.53491211 C1.11156556 10.04833133 -0.19865286 10.56136 -1.5090332 11.07397461 C-3.40357203 11.81519037 -5.297537 12.55785659 -7.19140625 13.30078125 C-8.32779541 13.74591064 -9.46418457 14.19104004 -10.63500977 14.6496582 C-14.11580875 16.04647306 -17.55838631 17.50971814 -21 19 C-21.625 16.125 -21.625 16.125 -22 13 C-19.24433749 10.24433749 -16.78460367 10.54065767 -13 10 C-12.34 9.34 -11.68 8.68 -11 8 C-8.4375 7.8125 -8.4375 7.8125 -6 8 C-5.67 8.33 -5.34 8.66 -5 9 C-4.67 7.68 -4.34 6.36 -4 5 C-2.68 4.67 -1.36 4.34 0 4 C0 2.68 0 1.36 0 0 Z " fill="#E9309D" transform="translate(346,149)"/>
<path d="M0 0 C8.91 1.485 8.91 1.485 18 3 C15.97144841 5.02855159 14.66980434 6.00835839 12 7 C11.175 6.79375 10.35 6.5875 9.5 6.375 C8.675 6.25125 7.85 6.1275 7 6 C6.34 6.66 5.68 7.32 5 8 C4.34 8.66 3.68 9.32 3 10 C0.25 9.75 0.25 9.75 -2 9 C-1.67 10.65 -1.34 12.3 -1 14 C-2.62723299 13.54965877 -4.25173664 13.08944646 -5.875 12.625 C-6.77992188 12.36976563 -7.68484375 12.11453125 -8.6171875 11.8515625 C-11 11 -11 11 -13 9 C-11.32248181 6.26299665 -10.49929731 5.15454441 -7.375 4.1875 C-6.59125 4.125625 -5.8075 4.06375 -5 4 C-4.67 4.33 -4.34 4.66 -4 5 C-2.68 3.35 -1.36 1.7 0 0 Z " fill="#E92D9C" transform="translate(236,313)"/>
<path d="M0 0 C-0.99 0.33 -1.98 0.66 -3 1 C-2.505 2.0725 -2.01 3.145 -1.5 4.25 C-0.11346089 7.25416808 0 8.45934895 0 12 C-0.99 11.67 -1.98 11.34 -3 11 C-4.4477922 8.10441559 -5 6.25811062 -5 3 C-5.99 3.495 -5.99 3.495 -7 4 C-6.484375 4.7425 -5.96875 5.485 -5.4375 6.25 C-4 9 -4 9 -4.25 11.25 C-5 13 -5 13 -6 14 C-7.66617115 14.04063832 -9.33388095 14.042721 -11 14 C-11 13.34 -11 12.68 -11 12 C-9.68 12 -8.36 12 -7 12 C-7 11.34 -7 10.68 -7 10 C-8.98 10 -10.96 10 -13 10 C-12.67 11.65 -12.34 13.3 -12 15 C-15 17 -15 17 -17.625 16.6875 C-20 16 -20 16 -21 15 C-21.3125 12.625 -21.3125 12.625 -21 10 C-19.4375 8.125 -19.4375 8.125 -17 7 C-13.25 7.3125 -13.25 7.3125 -10 8 C-9.896875 7.236875 -9.79375 6.47375 -9.6875 5.6875 C-8.22502622 -0.02944296 -5.58600397 -0.37240026 0 0 Z " fill="#2F92CB" transform="translate(193,91)"/>
<path d="M0 0 C8.25 0 16.5 0 25 0 C24.67 0.66 24.34 1.32 24 2 C21.03 1.505 21.03 1.505 18 1 C18.3403125 1.8971875 18.3403125 1.8971875 18.6875 2.8125 C19 5 19 5 17.875 6.75 C15.46145349 8.35903101 13.84326464 8.23053497 11 8 C10.34 6.68 9.68 5.36 9 4 C8.5875 4.825 8.175 5.65 7.75 6.5 C7.1725 7.325 6.595 8.15 6 9 C4.68 9 3.36 9 2 9 C1.34 9.66 0.68 10.32 0 11 C0 7.37 0 3.74 0 0 Z " fill="#E8299A" transform="translate(296,112)"/>
<path d="M0 0 C2.4375 0.375 2.4375 0.375 4.4375 2.375 C4.4375 4.685 4.4375 6.995 4.4375 9.375 C-2.4925 10.86 -2.4925 10.86 -9.5625 12.375 C-10.5525 10.395 -11.5425 8.415 -12.5625 6.375 C-12.2325 5.385 -11.9025 4.395 -11.5625 3.375 C-9.625 2.5625 -9.625 2.5625 -7.5625 2.375 C-6.9025 3.035 -6.2425 3.695 -5.5625 4.375 C-5.170625 3.715 -4.77875 3.055 -4.375 2.375 C-2.5625 0.375 -2.5625 0.375 0 0 Z " fill="#E92F9D" transform="translate(229.5625,78.625)"/>
<path d="M0 0 C0.66 0.33 1.32 0.66 2 1 C3.67654729 0.72057545 5.34608154 0.39171753 7 0 C10.72192513 6.6684492 10.72192513 6.6684492 10 11 C7 13 7 13 4.3125 12.625 C3.549375 12.41875 2.78625 12.2125 2 12 C1.67 11.01 1.34 10.02 1 9 C0.67 9.66 0.34 10.32 0 11 C-1.32 10.67 -2.64 10.34 -4 10 C-2.68 6.7 -1.36 3.4 0 0 Z " fill="#2E91CA" transform="translate(73,196)"/>
<path d="M0 0 C5.31027254 1.46032495 9.46330032 3.98320986 14 7 C13.34 7.66 12.68 8.32 12 9 C11.67 8.67 11.34 8.34 11 8 C7.89854972 7.66470808 6.50278877 7.60719627 4 9.5625 C2 11 2 11 -0.6875 10.75 C-3 10 -3 10 -4 9 C-4.04063832 7.33382885 -4.042721 5.66611905 -4 4 C-2.68 3.34 -1.36 2.68 0 2 C0 1.34 0 0.68 0 0 Z " fill="#3494CB" transform="translate(196,149)"/>
<path d="M0 0 C0.66 3.96 1.32 7.92 2 12 C-0.64 12.33 -3.28 12.66 -6 13 C-7.7674678 9.95995539 -9 7.80719026 -9 4.25 C-8 2 -8 2 -5.625 0.6875 C-3 0 -3 0 0 0 Z " fill="#E92498" transform="translate(353,211)"/>
<path d="M0 0 C1.80266269 3.41557141 2.218934 6.16865501 2 10 C-0.31 11.32 -2.62 12.64 -5 14 C-5.69906942 12.40084119 -6.38389468 10.79544955 -7.0625 9.1875 C-7.44535156 8.29417969 -7.82820312 7.40085938 -8.22265625 6.48046875 C-9 4 -9 4 -8 1 C-4.68510482 -0.74468167 -3.63361056 -1.21120352 0 0 Z " fill="#208BC8" transform="translate(241,195)"/>
<path d="M0 0 C2.96404505 2.80804268 5.44499019 5.18315774 7 9 C5.02 9 3.04 9 1 9 C1 7.68 1 6.36 1 5 C0.34 5 -0.32 5 -1 5 C-0.938125 6.175625 -0.938125 6.175625 -0.875 7.375 C-1 10 -1 10 -3 12 C-5.5 12.3125 -5.5 12.3125 -8 12 C-8.66 11.01 -9.32 10.02 -10 9 C-9.125 5.8125 -9.125 5.8125 -8 3 C-6.576875 3.0928125 -6.576875 3.0928125 -5.125 3.1875 C-3.578125 3.0946875 -3.578125 3.0946875 -2 3 C-1.34 2.01 -0.68 1.02 0 0 Z " fill="#2B90CA" transform="translate(91,280)"/>
<path d="M0 0 C1.76722436 3.3484251 2.50973716 6.22794505 2 10 C-1 12 -1 12 -3.5625 11.875 C-6 11 -6 11 -7.3125 9.3125 C-8.15900919 6.46515091 -8.13428922 3.95436294 -8 1 C-3.375 -1.125 -3.375 -1.125 0 0 Z " fill="#268DC9" transform="translate(251,221)"/>
<path d="M0 0 C0.33 0 0.66 0 1 0 C0.67 4.95 0.34 9.9 0 15 C-0.66 13.68 -1.32 12.36 -2 11 C-2.94875 11.20625 -3.8975 11.4125 -4.875 11.625 C-5.90625 11.74875 -6.9375 11.8725 -8 12 C-10 10 -10 10 -10.25 7.5 C-10 5 -10 5 -8 3 C-5.4375 2.8125 -5.4375 2.8125 -3 3 C-2.67 3.33 -2.34 3.66 -2 4 C-1.34 2.68 -0.68 1.36 0 0 Z " fill="#EA339F" transform="translate(355,239)"/>
<path d="M0 0 C0.66 0.66 1.32 1.32 2 2 C2.33 1.67 2.66 1.34 3 1 C4.66617115 0.95936168 6.33388095 0.957279 8 1 C9.3950848 3.29778673 10.07438619 4.4792967 9.6875 7.1875 C9 9 9 9 8 10 C6.8553125 9.938125 6.8553125 9.938125 5.6875 9.875 C2.47088224 10.02461013 1.42766253 10.99089997 -1 13 C-1.66 13 -2.32 13 -3 13 C-2.01 8.71 -1.02 4.42 0 0 Z " fill="#298FC9" transform="translate(239,251)"/>
<path d="M0 0 C0.78375 0.04125 1.5675 0.0825 2.375 0.125 C3.25390625 6.27734375 3.25390625 6.27734375 3.375 8.125 C2.375 9.125 2.375 9.125 -0.1875 9.1875 C-0.991875 9.166875 -1.79625 9.14625 -2.625 9.125 C-2.625 8.465 -2.625 7.805 -2.625 7.125 C-1.305 7.125 0.015 7.125 1.375 7.125 C1.375 6.465 1.375 5.805 1.375 5.125 C-0.605 5.125 -2.585 5.125 -4.625 5.125 C-4.563125 6.300625 -4.563125 6.300625 -4.5 7.5 C-4.625 10.125 -4.625 10.125 -6.625 12.125 C-7.615 12.125 -8.605 12.125 -9.625 12.125 C-9.625 9.155 -9.625 6.185 -9.625 3.125 C-8.84125 3.00125 -8.0575 2.8775 -7.25 2.75 C-3.99140815 1.9741448 -3.37025872 0.16048851 0 0 Z " fill="#3092CA" transform="translate(74.625,227.875)"/>
<path d="M0 0 C1.28132812 0.00902344 2.56265625 0.01804688 3.8828125 0.02734375 C5.36394531 0.04474609 5.36394531 0.04474609 6.875 0.0625 C5.885 0.5575 5.885 0.5575 4.875 1.0625 C4.21944881 3.58983235 4.21944881 3.58983235 3.875 6.0625 C1.565 6.3925 -0.745 6.7225 -3.125 7.0625 C-3.785 5.7425 -4.445 4.4225 -5.125 3.0625 C-6.115 4.5475 -6.115 4.5475 -7.125 6.0625 C-8.445 5.7325 -9.765 5.4025 -11.125 5.0625 C-10.465 5.0625 -9.805 5.0625 -9.125 5.0625 C-9.125 3.7425 -9.125 2.4225 -9.125 1.0625 C-6.12186252 -0.43906874 -3.33432478 -0.03031204 0 0 Z " fill="#2D91CA" transform="translate(160.125,140.9375)"/>
<path d="M0 0 C2.87398748 2.33511483 3.92491816 3.37431801 4.375 7.125 C4 10 4 10 2 12 C-0.4375 12.4375 -0.4375 12.4375 -3 12 C-5.72508509 8.71110421 -6.36146791 6.21712557 -6 2 C-5.34 2 -4.68 2 -4 2 C-4 3.32 -4 4.64 -4 6 C-2.68 6 -1.36 6 0 6 C-0.7763932 2.9254644 -0.7763932 2.9254644 -3 1 C-2.01 0.67 -1.02 0.34 0 0 Z " fill="#3293CB" transform="translate(179,39)"/>
<path d="M0 0 C0.66 0.99 1.32 1.98 2 3 C1.15955106 6.43183318 0.51471866 8.48528134 -2 11 C-6.55555556 10.44444444 -6.55555556 10.44444444 -8 9 C-8.125 6 -8.125 6 -8 3 C-7 2 -7 2 -3.9375 1.9375 C-2.4834375 1.9684375 -2.4834375 1.9684375 -1 2 C-0.67 1.34 -0.34 0.68 0 0 Z " fill="#3092CB" transform="translate(80,255)"/>
<path d="M0 0 C2.1875 3 2.1875 3 4 6 C2.3125 8.0625 2.3125 8.0625 0 10 C-2.75 9.75 -2.75 9.75 -5 9 C-5.66 7.02 -6.32 5.04 -7 3 C-3.375 0 -3.375 0 0 0 Z " fill="#2A8FCA" transform="translate(230,171)"/>
<path d="M0 0 C2.5 0.25 2.5 0.25 4.5 2.25 C4.8125 4.75 4.8125 4.75 4.5 7.25 C1.5 9.25 1.5 9.25 -1.125 8.9375 C-3.5 8.25 -3.5 8.25 -4.5 7.25 C-4.6875 4.8125 -4.6875 4.8125 -4.5 2.25 C-2.5 0.25 -2.5 0.25 0 0 Z " fill="#E8349E" transform="translate(319.5,163.75)"/>
<path d="M0 0 C2.5 0.25 2.5 0.25 4.5 2.25 C4.8125 4.75 4.8125 4.75 4.5 7.25 C1.5 9.25 1.5 9.25 -1.125 8.9375 C-3.5 8.25 -3.5 8.25 -4.5 7.25 C-4.6875 4.8125 -4.6875 4.8125 -4.5 2.25 C-2.5 0.25 -2.5 0.25 0 0 Z " fill="#E8349E" transform="translate(309.5,137.75)"/>
<path d="M0 0 C1.2065625 0.0309375 1.2065625 0.0309375 2.4375 0.0625 C3.8325848 2.36028673 4.51188619 3.5417967 4.125 6.25 C3.4375 8.0625 3.4375 8.0625 2.4375 9.0625 C0 9.3125 0 9.3125 -2.5625 9.0625 C-4.5625 6.0625 -4.5625 6.0625 -4.25 3.4375 C-3.27807854 0.07995314 -3.27807854 0.07995314 0 0 Z " fill="#3393CB" transform="translate(99.5625,157.9375)"/>
<path d="M0 0 C1.2065625 0.0309375 1.2065625 0.0309375 2.4375 0.0625 C3.8325848 2.36028673 4.51188619 3.5417967 4.125 6.25 C3.4375 8.0625 3.4375 8.0625 2.4375 9.0625 C0 9.3125 0 9.3125 -2.5625 9.0625 C-4.5625 6.0625 -4.5625 6.0625 -4.25 3.4375 C-3.27807854 0.07995314 -3.27807854 0.07995314 0 0 Z " fill="#3393CB" transform="translate(89.5625,131.9375)"/>
<path d="M0 0 C3.63 1.98 7.26 3.96 11 6 C10.34 7.32 9.68 8.64 9 10 C5.875 10.75 5.875 10.75 3 11 C0.00533317 6.75755532 0 5.65814459 0 0 Z " fill="#2D91CB" transform="translate(113,302)"/>
<path d="M0 0 C2.74277578 3.19990508 4.6302836 6.00499382 6 10 C2.67692308 13.93846154 2.67692308 13.93846154 -0.75 14.25 C-1.4925 14.1675 -2.235 14.085 -3 14 C-3 13.34 -3 12.68 -3 12 C-1.68 11.67 -0.36 11.34 1 11 C0.67 9.35 0.34 7.7 0 6 C-1.32 5.67 -2.64 5.34 -4 5 C-4 5.99 -4 6.98 -4 8 C-4.66 8 -5.32 8 -6 8 C-5.67 6.35 -5.34 4.7 -5 3 C-3.35 2.67 -1.7 2.34 0 2 C0 1.34 0 0.68 0 0 Z " fill="#E93BA2" transform="translate(340,184)"/>
<path d="M0 0 C0.99 0 1.98 0 3 0 C3.50615298 1.26839526 4.00469099 2.53983102 4.5 3.8125 C4.91765625 4.87404297 4.91765625 4.87404297 5.34375 5.95703125 C6 8 6 8 6 11 C3.42786866 12.61949011 2.32330841 13.04408751 -0.75 12.625 C-1.86375 12.315625 -1.86375 12.315625 -3 12 C-3 10.35 -3 8.7 -3 7 C-0.525 8.485 -0.525 8.485 2 10 C1.2236068 6.9254644 1.2236068 6.9254644 -1 5 C-0.01 5 0.98 5 2 5 C2 4.34 2 3.68 2 3 C1.34 3 0.68 3 0 3 C0 2.01 0 1.02 0 0 Z " fill="#E8339E" transform="translate(336,123)"/>
<path d="M0 0 C3.16717283 1.58358642 4.73268318 2.45263699 6.3125 5.6875 C6.6528125 6.8321875 6.6528125 6.8321875 7 8 C4 10 4 10 1.3125 9.625 C0.549375 9.41875 -0.21375 9.2125 -1 9 C-1.625 6.1875 -1.625 6.1875 -2 3 C-1.34 2.01 -0.68 1.02 0 0 Z " fill="#E9329E" transform="translate(344,123)"/>
<path d="M0 0 C-1 3 -1 3 -3 4 C-3 4.99 -3 5.98 -3 7 C-2.34 7.66 -1.68 8.32 -1 9 C-1.7425 8.9175 -2.485 8.835 -3.25 8.75 C-6.81242679 9.07385698 -7.57495551 10.49672827 -10 13 C-11.32 13 -12.64 13 -14 13 C-12.45212498 9.16549144 -10.06277254 6.97444301 -7 4.25 C-6.113125 3.45078125 -5.22625 2.6515625 -4.3125 1.828125 C-2 0 -2 0 0 0 Z " fill="#3692CB" transform="translate(221,291)"/>
<path d="M0 0 C2.71332843 2.42261467 2.49104079 5.06655071 2.75 8.5625 C2.09 8.5625 1.43 8.5625 0.75 8.5625 C0.46125 7.758125 0.1725 6.95375 -0.125 6.125 C-0.98262568 3.4298532 -0.98262568 3.4298532 -3.25 2.5625 C-2.92 5.2025 -2.59 7.8425 -2.25 10.5625 C-2.91 10.5625 -3.57 10.5625 -4.25 10.5625 C-5.24 7.5925 -6.23 4.6225 -7.25 1.5625 C-4.58811081 0.23155541 -2.96944939 -0.57739294 0 0 Z " fill="#3192CA" transform="translate(82.25,135.4375)"/>
<path d="M0 0 C0.99 0 1.98 0 3 0 C3.53229326 1.26607607 4.05044544 2.53810412 4.5625 3.8125 C4.85253906 4.52019531 5.14257812 5.22789062 5.44140625 5.95703125 C6 8 6 8 5 11 C0.545 9.02 0.545 9.02 -4 7 C-3.34 6.401875 -2.68 5.80375 -2 5.1875 C0.3373846 3.12498166 0.3373846 3.12498166 0 0 Z " fill="#2E91CB" transform="translate(186,151)"/>
<path d="M0 0 C0.80967438 2.91482778 1.21845993 4.46113217 0.0625 7.3125 C-0.4634375 8.1478125 -0.4634375 8.1478125 -1 9 C-1.66 7.02 -2.32 5.04 -3 3 C-3.33 3.33 -3.66 3.66 -4 4 C-3.71395102 5.67542976 -3.38218767 7.34385343 -3 9 C-3.99 9 -4.98 9 -6 9 C-7.76462683 5.91190305 -8 4.76687864 -8 1 C-4.93251126 -0.86240388 -3.40254489 -1.2151946 0 0 Z " fill="#3494CB" transform="translate(190,35)"/>
<path d="M0 0 C2.64 0 5.28 0 8 0 C8.625 2.375 8.625 2.375 9 5 C8.34 5.66 7.68 6.32 7 7 C3.875 6.625 3.875 6.625 1 6 C0.67 4.02 0.34 2.04 0 0 Z " fill="#2E91CA" transform="translate(155,317)"/>
<path d="M0 0 C1.65 0.33 3.3 0.66 5 1 C5.66 3.31 6.32 5.62 7 8 C6.01 8.33 5.02 8.66 4 9 C3.34 7.35 2.68 5.7 2 4 C1.67 4.33 1.34 4.66 1 5 C1.28604898 6.67542976 1.61781233 8.34385343 2 10 C1.01 10 0.02 10 -1 10 C-1 9.34 -1 8.68 -1 8 C-1.66 7.67 -2.32 7.34 -3 7 C-2.01 4.69 -1.02 2.38 0 0 Z " fill="#3595CC" transform="translate(65,140)"/>
<path d="M0 0 C1.2065625 0.0309375 1.2065625 0.0309375 2.4375 0.0625 C4.54615385 3.53557692 4.54615385 3.53557692 3.99609375 6.203125 C3.81175781 6.81671875 3.62742188 7.4303125 3.4375 8.0625 C-5.27678571 6.20535714 -5.27678571 6.20535714 -7.5625 3.0625 C-6.923125 2.753125 -6.28375 2.44375 -5.625 2.125 C-1.57454819 0.03840361 -1.57454819 0.03840361 0 0 Z " fill="#3494CC" transform="translate(164.5625,43.9375)"/>
<path d="M0 0 C0.33 0 0.66 0 1 0 C1.66 4.95 2.32 9.9 3 15 C1.68 15 0.36 15 -1 15 C-4 8.5 -4 8.5 -4 4 C-3.01 4.33 -2.02 4.66 -1 5 C-0.67 3.35 -0.34 1.7 0 0 Z " fill="#EA34A0" transform="translate(179,241)"/>
<path d="M0 0 C0.99 0.33 1.98 0.66 3 1 C3.33 2.98 3.66 4.96 4 7 C2.35 6.01 0.7 5.02 -1 4 C-0.67 6.64 -0.34 9.28 0 12 C-0.66 12 -1.32 12 -2 12 C-2.99 9.03 -3.98 6.06 -5 3 C-3.35 2.67 -1.7 2.34 0 2 C0 1.34 0 0.68 0 0 Z " fill="#3393CB" transform="translate(150,316)"/>
<path d="M0 0 C1.8125 1.375 1.8125 1.375 2.5625 3.5 C2.68625 4.428125 2.68625 4.428125 2.8125 5.375 C4.4625 5.045 6.1125 4.715 7.8125 4.375 C7.8125 5.035 7.8125 5.695 7.8125 6.375 C8.4725 6.705 9.1325 7.035 9.8125 7.375 C4.30441603 6.78484815 -0.83628069 5.80836231 -6.1875 4.375 C-6.1875 3.385 -6.1875 2.395 -6.1875 1.375 C-3.79410847 -0.16360884 -2.80166935 -0.80047696 0 0 Z " fill="#3092CB" transform="translate(138.1875,322.625)"/>
<path d="M0 0 C0.99 0 1.98 0 3 0 C4.98 3.63 6.96 7.26 9 11 C7.02 11 5.04 11 3 11 C0 4.5 0 4.5 0 0 Z " fill="#E937A0" transform="translate(185,271)"/>
<path d="M0 0 C0.33 1.65 0.66 3.3 1 5 C0.01 5.33 -0.98 5.66 -2 6 C-2.33 5.01 -2.66 4.02 -3 3 C-3.66 2.67 -4.32 2.34 -5 2 C-5 3.65 -5 5.3 -5 7 C-4.01 7.33 -3.02 7.66 -2 8 C-3.65 8.33 -5.3 8.66 -7 9 C-9.125 4.375 -9.125 4.375 -8 1 C-4.68510482 -0.74468167 -3.63361056 -1.21120352 0 0 Z " fill="#3695CC" transform="translate(241,195)"/>
<path d="M0 0 C0.33 1.65 0.66 3.3 1 5 C0.01 5.33 -0.98 5.66 -2 6 C-2.33 5.01 -2.66 4.02 -3 3 C-3.66 2.67 -4.32 2.34 -5 2 C-5 3.65 -5 5.3 -5 7 C-4.01 7.33 -3.02 7.66 -2 8 C-3.66611905 8.042721 -5.33382885 8.04063832 -7 8 C-8 7 -8 7 -8.0625 3.9375 C-8.041875 2.968125 -8.02125 1.99875 -8 1 C-3.375 -1.125 -3.375 -1.125 0 0 Z " fill="#3393CB" transform="translate(251,221)"/>
<path d="M0 0 C-1.32 2.97 -2.64 5.94 -4 9 C-7.31012244 5.68987756 -7.50351065 4.46840411 -8 0 C-4.71023192 -1.09658936 -3.28696233 -0.79953138 0 0 Z " fill="#3093CB" transform="translate(90,194)"/>
<path d="M0 0 C1.65 0 3.3 0 5 0 C6.42944945 2.35438733 7.08661261 3.48032433 6.625 6.25 C6.41875 6.8275 6.2125 7.405 6 8 C2.09161134 8 0.88405893 6.49432124 -2 4 C-1.34 2.68 -0.68 1.36 0 0 Z " fill="#409BCF" transform="translate(102,306)"/>
<path d="M0 0 C2.475 0.99 2.475 0.99 5 2 C5 3.98 5 5.96 5 8 C5.99 8 6.98 8 8 8 C7.67 8.99 7.34 9.98 7 11 C5.68 11 4.36 11 3 11 C0.02586069 7.38854512 -0.32019737 4.5894956 0 0 Z " fill="#3293CB" transform="translate(103,153)"/>
<path d="M0 0 C2.475 0.99 2.475 0.99 5 2 C5 3.98 5 5.96 5 8 C5.99 8 6.98 8 8 8 C7.67 8.99 7.34 9.98 7 11 C5.68 11 4.36 11 3 11 C0.02586069 7.38854512 -0.32019737 4.5894956 0 0 Z " fill="#3293CB" transform="translate(93,127)"/>
<path d="M0 0 C-0.33 1.65 -0.66 3.3 -1 5 C-5.75 6.125 -5.75 6.125 -8 5 C-8 5.66 -8 6.32 -8 7 C-8.66 7 -9.32 7 -10 7 C-8.07091409 1.3611335 -6.01450566 -0.32510841 0 0 Z " fill="#EA40A5" transform="translate(224,56)"/>
<path d="M0 0 C1.9375 0.5625 1.9375 0.5625 4 2 C4.75 5.625 4.75 5.625 5 9 C2.36 10.98 -0.28 12.96 -3 15 C-1.25618453 11.51236907 0.52806709 8.96631949 3 6 C0.69 5.01 -1.62 4.02 -4 3 C-2.68 2.01 -1.36 1.02 0 0 Z " fill="#3696CE" transform="translate(90,161)"/>
<path d="M0 0 C2.4375 0.625 2.4375 0.625 5 2 C5.8125 5.125 5.8125 5.125 6 8 C6.66 8 7.32 8 8 8 C7.67 8.99 7.34 9.98 7 11 C5.68 11 4.36 11 3 11 C0.02586069 7.38854512 -0.32019737 4.5894956 0 0 Z " fill="#E8329E" transform="translate(233,73)"/>
<path d="M0 0 C0.33 0 0.66 0 1 0 C1.66 3.63 2.32 7.26 3 11 C4.98 10.67 6.96 10.34 9 10 C8.67 10.99 8.34 11.98 8 13 C5.69 13.33 3.38 13.66 1 14 C-1.20808081 8.80451575 -0.93402724 5.41735797 0 0 Z " fill="#E935A0" transform="translate(167,216)"/>
<path d="M0 0 C0.99 0 1.98 0 3 0 C3.66 0.99 4.32 1.98 5 3 C5.66 2.67 6.32 2.34 7 2 C6.34 5.63 5.68 9.26 5 13 C2.94876752 10.94876752 2.35852882 9.72994937 1.375 7.0625 C0.98441406 6.02802734 0.98441406 6.02802734 0.5859375 4.97265625 C0 3 0 3 0 0 Z " fill="#2F92CB" transform="translate(247,247)"/>
<path d="M0 0 C1.32 0 2.64 0 4 0 C4.33 1.65 4.66 3.3 5 5 C6.98 4.67 8.96 4.34 11 4 C10.67 4.99 10.34 5.98 10 7 C7.69 7.33 5.38 7.66 3 8 C2.01 5.36 1.02 2.72 0 0 Z " fill="#3393CB" transform="translate(135,144)"/>
<path d="M0 0 C2.0625 1.75 2.0625 1.75 4 4 C3.75 6.25 3.75 6.25 3 8 C1.35 7.67 -0.3 7.34 -2 7 C-3 4 -3 4 -2 1 C-1.34 0.67 -0.68 0.34 0 0 Z " fill="#E91F97" transform="translate(338,188)"/>
<path d="M0 0 C2.0625 1.75 2.0625 1.75 4 4 C3.75 6.25 3.75 6.25 3 8 C1.35 7.67 -0.3 7.34 -2 7 C-3 4 -3 4 -2 1 C-1.34 0.67 -0.68 0.34 0 0 Z " fill="#E91F97" transform="translate(318,136)"/>
<path d="M0 0 C2.75 -0.25 2.75 -0.25 6 0 C8.375 2 8.375 2 10 4 C8.35412495 4 6.70810417 3.9947035 5.0625 3.96484375 C4.381875 3.95582031 3.70125 3.94679687 3 3.9375 C2.319375 3.92589844 1.63875 3.91429687 0.9375 3.90234375 C-1.21964354 3.92428631 -1.21964354 3.92428631 -4 5 C-4 4.34 -4 3.68 -4 3 C-2.68 2.67 -1.36 2.34 0 2 C0 1.34 0 0.68 0 0 Z " fill="#1988C8" transform="translate(200,153)"/>
<path d="M0 0 C0.99 0 1.98 0 3 0 C3.50833591 1.24663331 4.00631145 2.49749387 4.5 3.75 C4.7784375 4.44609375 5.056875 5.1421875 5.34375 5.859375 C6 8 6 8 6 12 C3 11 3 11 2.05078125 9.2578125 C1.80714844 8.55398438 1.56351562 7.85015625 1.3125 7.125 C1.06113281 6.42632812 0.80976562 5.72765625 0.55078125 5.0078125 C0 3 0 3 0 0 Z " fill="#2D91CA" transform="translate(107,301)"/>
<path d="M0 0 C3.93809611 3.76687454 3.93809611 3.76687454 4.09765625 6.9453125 C4.06510417 8.96354167 4.03255208 10.98177083 4 13 C1.65409087 10.86735534 0.0358888 9.02134234 -1 6 C-0.625 2.75 -0.625 2.75 0 0 Z " fill="#3897CD" transform="translate(194,92)"/>
<path d="M0 0 C3.63 0.33 7.26 0.66 11 1 C8.97144841 3.02855159 7.66980434 4.00835839 5 5 C2.25 4.625 2.25 4.625 0 4 C0 2.68 0 1.36 0 0 Z " fill="#EA3BA3" transform="translate(243,315)"/>
<path d="M0 0 C0.99 0.33 1.98 0.66 3 1 C3.70491267 3.32206525 4.37212429 5.65593068 5 8 C5.66 8.33 6.32 8.66 7 9 C5.35 9.33 3.7 9.66 2 10 C-0.4294516 6.3558226 -0.16179575 4.28758728 0 0 Z " fill="#E637A0" transform="translate(195,297)"/>
<path d="M0 0 C0.99 0 1.98 0 3 0 C3.50615298 1.26839526 4.00469099 2.53983102 4.5 3.8125 C4.91765625 4.87404297 4.91765625 4.87404297 5.34375 5.95703125 C6 8 6 8 6 11 C5.01 11 4.02 11 3 11 C2.49384702 9.73160474 1.99530901 8.46016898 1.5 7.1875 C1.2215625 6.47980469 0.943125 5.77210937 0.65625 5.04296875 C0 3 0 3 0 0 Z " fill="#2E91CA" transform="translate(167,39)"/>
<path d="M0 0 C1.40742022 2.81484045 0.66652164 4.56936113 0.0625 7.625 C-0.13214844 8.62789062 -0.32679688 9.63078125 -0.52734375 10.6640625 C-0.76130859 11.82035156 -0.76130859 11.82035156 -1 13 C-1.33 12.01 -1.66 11.02 -2 10 C-4.00016466 8.79117904 -4.00016466 8.79117904 -6 8 C-6 6.35 -6 4.7 -6 3 C-5.34 3 -4.68 3 -4 3 C-4 4.32 -4 5.64 -4 7 C-3.01 7 -2.02 7 -1 7 C-1.33 5.02 -1.66 3.04 -2 1 C-1.34 0.67 -0.68 0.34 0 0 Z " fill="#EB41A5" transform="translate(181,216)"/>
<path d="M0 0 C3 1 3 1 4.25 3.3125 C5.0275526 6.09873015 4.98726527 7.33438378 4 10 C2.35 9.67 0.7 9.34 -1 9 C-0.01 8.67 0.98 8.34 2 8 C1.04134491 5.66924071 1.04134491 5.66924071 -2 4 C-1.34 2.68 -0.68 1.36 0 0 Z " fill="#E939A1" transform="translate(179,186)"/>
<path d="M0 0 C0 0.66 0 1.32 0 2 C-0.99 2 -1.98 2 -3 2 C-3.33 3.32 -3.66 4.64 -4 6 C-6.875 6.625 -6.875 6.625 -10 7 C-10.66 6.34 -11.32 5.68 -12 5 C-10.37750059 4.16180842 -8.75191503 3.3295884 -7.125 2.5 C-6.22007812 2.0359375 -5.31515625 1.571875 -4.3828125 1.09375 C-2 0 -2 0 0 0 Z " fill="#EA3DA3" transform="translate(226,148)"/>
<path d="M0 0 C0.66 0.33 1.32 0.66 2 1 C1.34 1.66 0.68 2.32 0 3 C0.3185177 5.10820797 0.3185177 5.10820797 1 7 C-1.31 6.67 -3.62 6.34 -6 6 C-3.375 1.125 -3.375 1.125 0 0 Z " fill="#E92298" transform="translate(229,317)"/>
<path d="M0 0 C2.96404505 2.80804268 5.44499019 5.18315774 7 9 C5.02 9 3.04 9 1 9 C0.67 6.03 0.34 3.06 0 0 Z " fill="#3997CD" transform="translate(91,280)"/>
<path d="M0 0 C0.99 0 1.98 0 3 0 C6 5.75 6 5.75 6 8 C5.01 8.33 4.02 8.66 3 9 C0.70620251 5.55930376 0 4.27709699 0 0 Z " fill="#3494CC" transform="translate(242,193)"/>
<path d="M0 0 C1.32 0.66 2.64 1.32 4 2 C4.66 1.34 5.32 0.68 6 0 C6.1875 2.375 6.1875 2.375 6 5 C3 7 3 7 0.8125 6.625 C0.214375 6.41875 -0.38375 6.2125 -1 6 C-0.67 5.67 -0.34 5.34 0 5 C0.04063832 3.33382885 0.042721 1.66611905 0 0 Z " fill="#E91F97" transform="translate(318,166)"/>
<path d="M0 0 C0.66 1.32 1.32 2.64 2 4 C3.98 3.67 5.96 3.34 8 3 C7.67 3.99 7.34 4.98 7 6 C3.625 6.625 3.625 6.625 0 7 C-0.66 6.34 -1.32 5.68 -2 5 C-1.34 5 -0.68 5 0 5 C0 3.35 0 1.7 0 0 Z " fill="#E939A1" transform="translate(298,143)"/>
<path d="M0 0 C1.32 0.66 2.64 1.32 4 2 C4.66 1.34 5.32 0.68 6 0 C6.1875 2.375 6.1875 2.375 6 5 C3 7 3 7 0.8125 6.625 C0.214375 6.41875 -0.38375 6.2125 -1 6 C-0.67 5.67 -0.34 5.34 0 5 C0.04063832 3.33382885 0.042721 1.66611905 0 0 Z " fill="#E91F97" transform="translate(308,140)"/>
<path d="M0 0 C0.33 0 0.66 0 1 0 C1.1875 3.375 1.1875 3.375 1 7 C0.01 7.66 -0.98 8.32 -2 9 C-2.33 9.99 -2.66 10.98 -3 12 C-3.66 11.67 -4.32 11.34 -5 11 C-3.93051945 6.72207778 -3.02504439 3.28809173 0 0 Z " fill="#3E9ACF" transform="translate(172,16)"/>
<path d="M0 0 C1.28132812 0.00902344 2.56265625 0.01804688 3.8828125 0.02734375 C5.36394531 0.04474609 5.36394531 0.04474609 6.875 0.0625 C6.875 0.3925 6.875 0.7225 6.875 1.0625 C2.585 1.0625 -1.705 1.0625 -6.125 1.0625 C-6.455 2.7125 -6.785 4.3625 -7.125 6.0625 C-8.445 5.7325 -9.765 5.4025 -11.125 5.0625 C-10.465 5.0625 -9.805 5.0625 -9.125 5.0625 C-9.125 3.7425 -9.125 2.4225 -9.125 1.0625 C-6.12186252 -0.43906874 -3.33432478 -0.03031204 0 0 Z " fill="#5FABD7" transform="translate(160.125,140.9375)"/>
<path d="M0 0 C2.33944736 0.28730055 4.6739143 0.61936779 7 1 C7 2.32 7 3.64 7 5 C4.69 5.66 2.38 6.32 0 7 C1 4 1 4 2 3 C1.01 2.34 0.02 1.68 -1 1 C-0.67 0.67 -0.34 0.34 0 0 Z " fill="#EA3EA3" transform="translate(353,149)"/>
<path d="M0 0 C0 1.98 0 3.96 0 6 C-1.65 5.67 -3.3 5.34 -5 5 C-5.33 3.68 -5.66 2.36 -6 1 C-4 0 -4 0 0 0 Z " fill="#248DC9" transform="translate(151,142)"/>
<path d="M0 0 C2.475 0.99 2.475 0.99 5 2 C4.375 3.9375 4.375 3.9375 3 6 C-0.125 6.75 -0.125 6.75 -3 7 C-3.33 6.34 -3.66 5.68 -4 5 C-2.68 4.67 -1.36 4.34 0 4 C-0.66 3.34 -1.32 2.68 -2 2 C-1.34 2 -0.68 2 0 2 C0 1.34 0 0.68 0 0 Z " fill="#3A97CD" transform="translate(119,306)"/>
<path d="M0 0 C1.98 0.99 1.98 0.99 4 2 C4.1875 4.3125 4.1875 4.3125 4 7 C3.01 7.99 2.02 8.98 1 10 C0.67 6.7 0.34 3.4 0 0 Z " fill="#EA3AA2" transform="translate(340,216)"/>
<path d="M0 0 C0.68707555 2.49064888 1 4.37886292 1 7 C0.401875 6.835 -0.19625 6.67 -0.8125 6.5 C-3.11344336 5.8885876 -3.11344336 5.8885876 -6 6 C-3.375 1.125 -3.375 1.125 0 0 Z " fill="#E91D96" transform="translate(337,126)"/>
<path d="M0 0 C0.99 0.495 0.99 0.495 2 1 C2.625 3.5625 2.625 3.5625 3 6 C3.99 6.33 4.98 6.66 6 7 C6 7.66 6 8.32 6 9 C4.68 9 3.36 9 2 9 C1.34 9.66 0.68 10.32 0 11 C0 7.37 0 3.74 0 0 Z " fill="#EB4EAB" transform="translate(296,112)"/>
<path d="M0 0 C2.12046792 3.53411321 2.53199289 6.94393835 3 11 C1.68 10.67 0.36 10.34 -1 10 C-1.33 7.36 -1.66 4.72 -2 2 C-1.34 2 -0.68 2 0 2 C0 1.34 0 0.68 0 0 Z " fill="#EA42A5" transform="translate(352,211)"/>
<path d="M0 0 C-0.33 1.65 -0.66 3.3 -1 5 C-2.65 4.67 -4.3 4.34 -6 4 C-6 4.99 -6 5.98 -6 7 C-6.66 7 -7.32 7 -8 7 C-7.8125 4.625 -7.8125 4.625 -7 2 C-4.54236535 0.67665827 -2.79402354 0 0 0 Z " fill="#E8329D" transform="translate(352,211)"/>
<path d="M0 0 C4.875 0.875 4.875 0.875 6 2 C6.04063832 3.66617115 6.042721 5.33388095 6 7 C5.01 7.495 5.01 7.495 4 8 C2.68 5.36 1.36 2.72 0 0 Z " fill="#E936A0" transform="translate(328,190)"/>
<path d="M0 0 C1.98 0.66 3.96 1.32 6 2 C5.67 2.99 5.34 3.98 5 5 C3.35 5.33 1.7 5.66 0 6 C0 4.02 0 2.04 0 0 Z " fill="#E92499" transform="translate(342,154)"/>
<path d="M0 0 C0.66 0.99 1.32 1.98 2 3 C3.65 2.67 5.3 2.34 7 2 C6.34 3.32 5.68 4.64 5 6 C2.625 6.1875 2.625 6.1875 0 6 C-0.66 5.01 -1.32 4.02 -2 3 C-1.34 2.01 -0.68 1.02 0 0 Z " fill="#3595CC" transform="translate(83,286)"/>
<path d="M0 0 C-1 2 -1 2 -3 3 C-2.67 4.32 -2.34 5.64 -2 7 C-3.32 7 -4.64 7 -6 7 C-6.33 5.35 -6.66 3.7 -7 2 C-4.35261084 0.5393715 -3.10551666 0 0 0 Z " fill="#1A88C8" transform="translate(181,38)"/>
<path d="M0 0 C2.0625 0.4375 2.0625 0.4375 4 1 C3.34 1.66 2.68 2.32 2 3 C1.29289322 4.64991582 0.62056011 6.31562256 0 8 C-0.66 7.34 -1.32 6.68 -2 6 C-1.44444444 1.44444444 -1.44444444 1.44444444 0 0 Z " fill="#E8349E" transform="translate(326,160)"/>
<path d="M0 0 C2.12508244 3.18762365 2.5020163 5.26512223 3 9 C1.02 8.34 -0.96 7.68 -3 7 C-2.01 4.69 -1.02 2.38 0 0 Z " fill="#3C99CE" transform="translate(189,153)"/>
<path d="M0 0 C1.65 1.65 3.3 3.3 5 5 C3.68 5.99 2.36 6.98 1 8 C0 7 0 7 -0.0625 3.4375 C-0.041875 2.303125 -0.02125 1.16875 0 0 Z " fill="#E2339F" transform="translate(205,295)"/>
<path d="M0 0 C0.66 0 1.32 0 2 0 C2.5345256 1.24420647 3.05208611 2.49570936 3.5625 3.75 C3.85253906 4.44609375 4.14257812 5.1421875 4.44140625 5.859375 C5.07831803 8.30012784 4.80248831 9.6403655 4 12 C2.09681116 9.14521674 1.5380901 7.58058692 0.875 4.3125 C0.70742187 3.50425781 0.53984375 2.69601562 0.3671875 1.86328125 C0.24601562 1.24839844 0.12484375 0.63351562 0 0 Z " fill="#479ED0" transform="translate(67,257)"/>
<path d="M0 0 C2 2 2 2 2 6 C1.01 6.33 0.02 6.66 -1 7 C-1.66 5.68 -2.32 4.36 -3 3 C-2.01 2.01 -1.02 1.02 0 0 Z " fill="#2E92CC" transform="translate(221,175)"/>
<path d="M0 0 C2.125 0.375 2.125 0.375 4 1 C3.34 1 2.68 1 2 1 C1.67 2.32 1.34 3.64 1 5 C-0.32 5.33 -1.64 5.66 -3 6 C-2.42655063 3.13275314 -2.1385485 2.1385485 0 0 Z " fill="#EA44A6" transform="translate(211,123)"/>
<path d="M0 0 C-0.99 0.495 -0.99 0.495 -2 1 C-2.65213292 3.02463255 -2.65213292 3.02463255 -3 5 C-3 4.34 -3 3.68 -3 3 C-4.32 3 -5.64 3 -7 3 C-7.33 3.99 -7.66 4.98 -8 6 C-8 4.68 -8 3.36 -8 2 C-4.77208445 -0.1519437 -3.71599191 -0.20086443 0 0 Z " fill="#479ED1" transform="translate(181,98)"/>
<path d="M0 0 C0.625 1.875 0.625 1.875 1 4 C0.34 4.66 -0.32 5.32 -1 6 C-2.32 6 -3.64 6 -5 6 C-4.75 4.125 -4.75 4.125 -4 2 C-1.9375 0.75 -1.9375 0.75 0 0 Z " fill="#E82B9B" transform="translate(223,56)"/>
<path d="M0 0 C0.66 0 1.32 0 2 0 C2 0.66 2 1.32 2 2 C2.66 2.33 3.32 2.66 4 3 C2.71034824 4.37562854 1.37310707 5.70766393 0 7 C-0.66 7 -1.32 7 -2 7 C-1.34 4.69 -0.68 2.38 0 0 Z " fill="#3897CD" transform="translate(238,257)"/>
<path d="M0 0 C0.66 0.66 1.32 1.32 2 2 C2.33 1.67 2.66 1.34 3 1 C4.66617115 0.95936168 6.33388095 0.957279 8 1 C8 1.66 8 2.32 8 3 C6.68 3 5.36 3 4 3 C4 3.66 4 4.32 4 5 C2.68 4.67 1.36 4.34 0 4 C0 2.68 0 1.36 0 0 Z " fill="#3695CC" transform="translate(239,251)"/>
<path d="M0 0 C1.32 0 2.64 0 4 0 C4 0.66 4 1.32 4 2 C4.99 2.33 5.98 2.66 7 3 C5.02 3.66 3.04 4.32 1 5 C0.67 3.35 0.34 1.7 0 0 Z " fill="#248CC9" transform="translate(97,160)"/>
<path d="M0 0 C1.32 0 2.64 0 4 0 C4 0.66 4 1.32 4 2 C4.99 2.33 5.98 2.66 7 3 C5.02 3.66 3.04 4.32 1 5 C0.67 3.35 0.34 1.7 0 0 Z " fill="#248CC9" transform="translate(87,134)"/>
<path d="M0 0 C0.99 0 1.98 0 3 0 C3 0.66 3 1.32 3 2 C4.65 1.67 6.3 1.34 8 1 C8 1.66 8 2.32 8 3 C8.66 3.33 9.32 3.66 10 4 C8.741875 3.87625 7.48375 3.7525 6.1875 3.625 C5.12595703 3.52058594 5.12595703 3.52058594 4.04296875 3.4140625 C2 3 2 3 -1 1 C-0.67 0.67 -0.34 0.34 0 0 Z " fill="#4AA0D2" transform="translate(138,326)"/>
<path d="M0 0 C1.32 0.33 2.64 0.66 4 1 C4.33 2.32 4.66 3.64 5 5 C2.36 4.34 -0.28 3.68 -3 3 C-2.01 2.67 -1.02 2.34 0 2 C0 1.34 0 0.68 0 0 Z " fill="#E944A6" transform="translate(230,322)"/>
<path d="M0 0 C0.78375 0.04125 1.5675 0.0825 2.375 0.125 C2.705 1.445 3.035 2.765 3.375 4.125 C0.5 4.25 0.5 4.25 -2.625 4.125 C-3.285 3.465 -3.945 2.805 -4.625 2.125 C-2.625 0.125 -2.625 0.125 0 0 Z " fill="#3192CA" transform="translate(104.625,305.875)"/>
<path d="M0 0 C0.66 0 1.32 0 2 0 C2.66 1.98 3.32 3.96 4 6 C2.68 6 1.36 6 0 6 C0 4.02 0 2.04 0 0 Z " fill="#EB1794" transform="translate(219,84)"/>
<path d="M0 0 C0.33 0.99 0.66 1.98 1 3 C-2.4352048 5.29013653 -3.985331 5.17842973 -8 5 C-5.37352812 3.24901874 -2.71224618 1.61268692 0 0 Z " fill="#468CC8" transform="translate(205,303)"/>
<path d="M0 0 C0.99 0.33 1.98 0.66 3 1 C3.042721 2.66611905 3.04063832 4.33382885 3 6 C2 7 2 7 -0.5625 7.0625 C-1.7690625 7.0315625 -1.7690625 7.0315625 -3 7 C-2.01 6.34 -1.02 5.68 0 5 C0.25030977 2.41619823 0.25030977 2.41619823 0 0 Z " fill="#3996CC" transform="translate(221,296)"/>
<path d="M0 0 C0.99 0 1.98 0 3 0 C5.1875 3 5.1875 3 7 6 C6.01 6.495 6.01 6.495 5 7 C4.01 6.67 3.02 6.34 2 6 C2 4.35 2 2.7 2 1 C1.34 0.67 0.68 0.34 0 0 Z " fill="#459DD0" transform="translate(227,171)"/>
<path d="M0 0 C-0.33 0.66 -0.66 1.32 -1 2 C-1.66 2 -2.32 2 -3 2 C-3.33 2.66 -3.66 3.32 -4 4 C-4.66 4 -5.32 4 -6 4 C-6.33 2.68 -6.66 1.36 -7 0 C-4.3333581 -1.33332095 -2.83319697 -0.67102033 0 0 Z " fill="#E91B95" transform="translate(357,152)"/>
<path d="M0 0 C1.32 0.33 2.64 0.66 4 1 C4 1.66 4 2.32 4 3 C3.01 3 2.02 3 1 3 C0.67 3.99 0.34 4.98 0 6 C-0.66 6 -1.32 6 -2 6 C-2 4.68 -2 3.36 -2 2 C-1.34 2 -0.68 2 0 2 C0 1.34 0 0.68 0 0 Z " fill="#1F8BC9" transform="translate(196,149)"/>
<path d="M0 0 C0.99 0 1.98 0 3 0 C3 0.66 3 1.32 3 2 C3.66 2 4.32 2 5 2 C5.33 1.34 5.66 0.68 6 0 C5.67 1.32 5.34 2.64 5 4 C3.68 4.33 2.36 4.66 1 5 C0.67 3.35 0.34 1.7 0 0 Z " fill="#E92097" transform="translate(228,81)"/>
<path d="M0 0 C1.98 0.99 1.98 0.99 4 2 C3.34 3.98 2.68 5.96 2 8 C0.23537317 4.91190305 0 3.76687864 0 0 Z " fill="#EA39A1" transform="translate(345,269)"/>
<path d="M0 0 C0.99 0.33 1.98 0.66 3 1 C3 2.65 3 4.3 3 6 C2.01 6 1.02 6 0 6 C-0.38218767 4.34385343 -0.71395102 2.67542976 -1 1 C-0.67 0.67 -0.34 0.34 0 0 Z " fill="#E91C95" transform="translate(177,217)"/>
<path d="M0 0 C0.33 0.99 0.66 1.98 1 3 C-0.98 3.99 -2.96 4.98 -5 6 C-5.33 4.68 -5.66 3.36 -6 2 C-4.02 1.34 -2.04 0.68 0 0 Z " fill="#3394CC" transform="translate(241,203)"/>
<path d="M0 0 C2.0625 0.4375 2.0625 0.4375 4 1 C2.02 1.99 2.02 1.99 0 3 C0 3.99 0 4.98 0 6 C-0.66 6 -1.32 6 -2 6 C-1.125 1.125 -1.125 1.125 0 0 Z " fill="#E8329E" transform="translate(336,186)"/>
<path d="M0 0 C1.32 0.66 2.64 1.32 4 2 C3.01 2 2.02 2 1 2 C1 2.99 1 3.98 1 5 C1.66 5.33 2.32 5.66 3 6 C1.68 6.33 0.36 6.66 -1 7 C-1.04254356 5.00045254 -1.04080783 2.99958364 -1 1 C-0.67 0.67 -0.34 0.34 0 0 Z " fill="#E93EA3" transform="translate(335,157)"/>
<path d="M0 0 C1.32 0 2.64 0 4 0 C4.33 1.65 4.66 3.3 5 5 C4.01 5.33 3.02 5.66 2 6 C1.34 4.02 0.68 2.04 0 0 Z " fill="#3C98CE" transform="translate(135,144)"/>
<path d="M0 0 C-0.33 0.99 -0.66 1.98 -1 3 C-2.65 3.33 -4.3 3.66 -6 4 C-6 3.01 -6 2.02 -6 1 C-3 0 -3 0 0 0 Z " fill="#E93CA3" transform="translate(346,250)"/>
<path d="M0 0 C-0.66 0.66 -1.32 1.32 -2 2 C-2.33 1.67 -2.66 1.34 -3 1 C-4.66617115 0.95936168 -6.33388095 0.957279 -8 1 C-8 0.34 -8 -0.32 -8 -1 C-4.59745511 -2.2151946 -3.06748874 -1.86240388 0 0 Z " fill="#358AC8" transform="translate(210,156)"/>
</svg>
